<?xml version="1.0" encoding="UTF-8" standalone="no"?>
<!-- Created with Inkscape (http://www.inkscape.org/) -->

<svg
   width="210mm"
   height="297mm"
   viewBox="0 0 210 297"
   version="1.1"
   id="svg1"
   xml:space="preserve"
   inkscape:version="1.3 (0e150ed6c4, 2023-07-21)"
   sodipodi:docname="Zeichnung-1.svg"
   xmlns:inkscape="http://www.inkscape.org/namespaces/inkscape"
   xmlns:sodipodi="http://sodipodi.sourceforge.net/DTD/sodipodi-0.dtd"
   xmlns="http://www.w3.org/2000/svg"
   xmlns:svg="http://www.w3.org/2000/svg"><sodipodi:namedview
     id="namedview1"
     pagecolor="#ffffff"
     bordercolor="#666666"
     borderopacity="1.0"
     inkscape:showpageshadow="2"
     inkscape:pageopacity="0.0"
     inkscape:pagecheckerboard="0"
     inkscape:deskcolor="#d1d1d1"
     inkscape:document-units="mm"
     inkscape:zoom="0.72426347"
     inkscape:cx="454.94494"
     inkscape:cy="490.84348"
     inkscape:window-width="1920"
     inkscape:window-height="1009"
     inkscape:window-x="3832"
     inkscape:window-y="-8"
     inkscape:window-maximized="1"
     inkscape:current-layer="layer1" /><defs
     id="defs1" /><g
     inkscape:label="Ebene 1"
     inkscape:groupmode="layer"
     id="layer1"><path
       style="fill:#000000"
       d="m 97.256552,168.4306 c -6.8801,-1.23125 -9.70763,-2.16443 -12.28023,-4.05288 -0.70643,-0.51857 -1.45337,-0.94285 -1.65986,-0.94285 -0.2065,0 -0.86133,0.35731 -1.45518,0.79404 -2.58697,1.90247 -7.28324,2.95416 -13.31202,2.9811 -4.8379,0.0216 -7.21094,-0.35123 -11.43274,-1.7963 -8.42997,-2.88546 -14.82125,-7.56839 -19.13879,-14.02309 -2.06118,-3.08145 -3.06361,-5.08389 -4.16937,-8.32867 -1.34871,-3.95767 -1.63995,-6.05981 -1.63122,-11.77396 0.007,-4.90644 0.0624,-5.50951 0.75449,-8.28417 1.51732,-6.08317 5.95653,-13.04199 10.54693,-16.5332 1.05581,-0.80299 3.1072,-2.07933 4.55863,-2.83631 2.62011,-1.36649 2.642,-1.38603 3.06351,-2.73632 1.73219,-5.548924 7.58765,-11.667273 13.53579,-14.14349 4.99211,-2.078219 12.99768,-2.172996 17.29685,-0.204774 0.82309,0.376826 1.60152,0.685138 1.72983,0.685138 0.12832,0 0.65522,-0.467009 1.17089,-1.037799 0.51567,-0.570789 1.97388,-1.746327 3.24046,-2.612307 7.54516,-5.158753 17.362228,-7.648879 26.379948,-6.691346 8.0435,0.854087 13.12794,2.453665 18.73957,5.895517 5.19879,3.18864 10.55548,8.774073 12.59263,13.130356 0.60738,1.298837 0.69282,1.369745 1.65048,1.369745 1.45044,0 5.84258,1.46035 8.16002,2.71314 2.91777,1.57731 5.18237,3.32616 7.69404,5.94173 6.41086,6.6761 9.81751,13.89059 10.606,22.46102 0.7891,8.57709 -1.6004,17.76776 -6.21834,23.91745 -2.46881,3.28769 -4.30342,5.21307 -7.05461,7.40362 -6.15567,4.90128 -12.87537,7.37617 -20.67643,7.61522 -5.99498,0.1837 -12.21669,-1.07499 -15.60075,-3.15613 -1.60561,-0.98743 -2.4571,-0.94688 -4.35193,0.20723 -1.97423,1.20247 -6.71301,2.82026 -10.77042,3.67693 -2.54528,0.53741 -3.79994,0.6519 -6.87916,0.6277 -2.07136,-0.0163 -4.361408,-0.13613 -5.089018,-0.26634 z m 11.398708,-7.23521 c 4.54002,-0.9577 9.51459,-3.13794 11.84989,-5.19356 0.64585,-0.5685 1.3715,-1.03363 1.61256,-1.03363 0.24106,0 0.9967,0.42703 1.67919,0.94895 1.66784,1.27546 5.02304,2.84933 7.88767,3.7 1.89586,0.56299 3.08923,0.72411 6.18552,0.8351 3.52434,0.12635 4.04233,0.0826 6.36697,-0.53722 7.92297,-2.11267 13.56303,-6.06682 17.89842,-12.5483 1.63573,-2.44545 2.67866,-4.81113 3.9584,-8.97888 0.67369,-2.19401 0.71761,-2.64566 0.71618,-7.36444 -0.001,-4.61289 -0.0599,-5.24508 -0.70984,-7.67292 -0.83332,-3.11274 -3.05549,-7.69892 -4.96054,-10.23767 -3.66733,-4.88722 -10.40897,-9.19667 -15.85831,-10.13707 -1.38083,-0.2383 -2.52773,-0.45443 -2.54867,-0.4803 -0.0209,-0.0259 -0.45737,-0.88048 -0.96983,-1.89913 -1.99776,-3.971023 -6.84094,-9.468818 -10.46206,-11.876132 -3.6379,-2.418467 -8.52749,-4.41816 -13.4907,-5.517282 -2.02323,-0.448052 -3.42418,-0.565926 -6.66293,-0.560607 -6.43346,0.01056 -10.08733,0.795748 -15.213548,3.269248 -3.56207,1.718771 -5.48835,3.009722 -9.28089,6.219853 -2.87121,2.430283 -3.23171,2.660798 -3.49694,2.236093 -0.57943,-0.927811 -4.34989,-2.549343 -7.06429,-3.038082 -2.4175,-0.435282 -2.70137,-0.436489 -4.81858,-0.02049 -2.79782,0.549724 -4.84192,1.368787 -6.89427,2.762511 -2.26358,1.537167 -4.09226,3.43875 -5.30642,5.517945 -1.2437,2.129793 -1.59936,3.170523 -1.84772,5.406843 l -0.18463,1.66243 -1.05833,0.21657 c -1.60536,0.32851 -6.13256,2.63541 -8.09195,4.12336 -2.00648,1.52373 -3.42574,3.06757 -5.39594,5.86962 -2.32952,3.31307 -3.56214,8.47681 -3.57259,14.96651 -0.006,3.56356 0.24118,5.28866 1.22735,8.57484 1.28348,4.27684 3.89904,8.38849 7.69957,12.10366 5.28009,5.1615 12.55418,8.01124 20.44903,8.01124 4.86572,0 10.08793,-1.72457 13.41151,-4.429 0.76193,-0.61999 1.51757,-1.12725 1.67919,-1.12725 0.16163,0 0.84792,0.48944 1.5251,1.08765 3.22869,2.85219 9.16169,5.25491 14.3281,5.80252 2.751188,0.29161 5.960388,0.0656 9.414328,-0.66298 z m 0.77235,-51.91762 c 1.06997,-1.254 1.71957,-2.25316 1.71957,-2.64491 0,-0.88148 -0.61586,-2.23894 -1.28713,-2.83706 -0.50499,-0.44995 -0.68389,-0.46948 -1.64984,-0.18007 -1.20835,0.36203 -3.23886,2.09401 -3.85754,3.2904 -0.88987,1.72083 -0.23442,3.61819 1.54818,4.48152 1.12095,0.5429 1.4117,0.36896 3.52676,-2.10988 z m 13.16279,-4.0803 c 0.70256,-0.84778 0.62715,-2.90209 -0.13229,-3.60363 -1.22747,-1.13389 -4.50891,-1.47124 -7.02958,-0.72268 l -1.37094,0.40712 v 1.19351 c 0,1.3534 0.51161,2.51832 1.38755,3.15945 0.50558,0.37004 1.06204,0.41299 3.63954,0.28089 2.66548,-0.1366 3.10011,-0.2252 3.50572,-0.71466 z"
       id="path1"
       sodipodi:nodetypes="sssssssscssscsssssssssssssssssssssssssscsscssscsssssssssssscssscsssssssssssssssssscssss" /><path
       d="m 89.451347,192.51438 c -11.48092,-0.21203 -31.158839,-1.10732 -34.792709,-1.58296 -2.54067,-0.33255 -3.93571,-0.93811 -4.05241,-1.75906 -0.10442,-0.73462 1.09485,-1.52133 2.9138,-1.91143 2.76107,-0.59214 12.983549,-1.64393 20.850069,-2.14525 12.60535,-0.80333 42.460733,-0.71932 53.842703,0.1515 6.07311,0.46465 13.8001,1.52044 15.48923,2.1164 2.19093,0.77301 2.73944,1.90366 1.28771,2.65438 -2.00354,1.03607 -6.20168,1.43002 -21.01027,1.97161 -17.7803,0.65027 -22.00224,0.78935 -22.75417,0.74958 -0.43656,-0.0231 -5.734843,-0.13324 -11.773953,-0.24477 z"
       style="fill:#000000"
       id="path1-6" /></g></svg>
